<mxfile host="app.diagrams.net" agent="Mozilla/5.0 (Windows NT 10.0; Win64; x64; rv:130.0) Gecko/20100101 Firefox/130.0" version="24.7.12">
  <diagram name="Page-1" id="L8_Ru0DfRYATbcx9QnJk">
    <mxGraphModel dx="2234" dy="1204" grid="0" gridSize="10" guides="1" tooltips="1" connect="1" arrows="1" fold="1" page="0" pageScale="1" pageWidth="850" pageHeight="1100" math="0" shadow="0">
      <root>
        <mxCell id="0" />
        <mxCell id="1" parent="0" />
        <mxCell id="A_tRMl9OzeEIElT0_HVN-3" value="" style="edgeStyle=none;curved=1;rounded=0;orthogonalLoop=1;jettySize=auto;html=1;fontSize=12;startSize=8;endSize=8;" edge="1" parent="1" source="A_tRMl9OzeEIElT0_HVN-1" target="A_tRMl9OzeEIElT0_HVN-2">
          <mxGeometry relative="1" as="geometry" />
        </mxCell>
        <mxCell id="A_tRMl9OzeEIElT0_HVN-25" value="" style="edgeStyle=none;curved=1;rounded=0;orthogonalLoop=1;jettySize=auto;html=1;fontSize=12;startSize=8;endSize=8;" edge="1" parent="1" source="A_tRMl9OzeEIElT0_HVN-1" target="A_tRMl9OzeEIElT0_HVN-24">
          <mxGeometry relative="1" as="geometry" />
        </mxCell>
        <mxCell id="A_tRMl9OzeEIElT0_HVN-1" value="Programming Languages" style="whiteSpace=wrap;html=1;" vertex="1" parent="1">
          <mxGeometry x="-116" y="124" width="120" height="60" as="geometry" />
        </mxCell>
        <mxCell id="A_tRMl9OzeEIElT0_HVN-5" value="" style="edgeStyle=none;curved=1;rounded=0;orthogonalLoop=1;jettySize=auto;html=1;fontSize=12;startSize=8;endSize=8;" edge="1" parent="1" source="A_tRMl9OzeEIElT0_HVN-2" target="A_tRMl9OzeEIElT0_HVN-4">
          <mxGeometry relative="1" as="geometry" />
        </mxCell>
        <mxCell id="A_tRMl9OzeEIElT0_HVN-12" value="" style="edgeStyle=none;curved=1;rounded=0;orthogonalLoop=1;jettySize=auto;html=1;fontSize=12;startSize=8;endSize=8;" edge="1" parent="1" source="A_tRMl9OzeEIElT0_HVN-2" target="A_tRMl9OzeEIElT0_HVN-8">
          <mxGeometry relative="1" as="geometry" />
        </mxCell>
        <mxCell id="A_tRMl9OzeEIElT0_HVN-2" value="Java" style="whiteSpace=wrap;html=1;fillColor=#f5f5f5;fontColor=#333333;strokeColor=#666666;" vertex="1" parent="1">
          <mxGeometry x="130" y="122" width="120" height="60" as="geometry" />
        </mxCell>
        <mxCell id="A_tRMl9OzeEIElT0_HVN-7" value="" style="edgeStyle=none;curved=1;rounded=0;orthogonalLoop=1;jettySize=auto;html=1;fontSize=12;startSize=8;endSize=8;" edge="1" parent="1" source="A_tRMl9OzeEIElT0_HVN-4" target="A_tRMl9OzeEIElT0_HVN-6">
          <mxGeometry relative="1" as="geometry" />
        </mxCell>
        <mxCell id="A_tRMl9OzeEIElT0_HVN-20" value="" style="edgeStyle=none;curved=1;rounded=0;orthogonalLoop=1;jettySize=auto;html=1;fontSize=12;startSize=8;endSize=8;" edge="1" parent="1" source="A_tRMl9OzeEIElT0_HVN-4" target="A_tRMl9OzeEIElT0_HVN-16">
          <mxGeometry relative="1" as="geometry" />
        </mxCell>
        <UserObject label="Spring" link="https://start.spring.io/" linkTarget="_blank" id="A_tRMl9OzeEIElT0_HVN-4">
          <mxCell style="whiteSpace=wrap;html=1;fillColor=#d5e8d4;strokeColor=#82b366;" vertex="1" parent="1">
            <mxGeometry x="370" y="122" width="120" height="60" as="geometry" />
          </mxCell>
        </UserObject>
        <mxCell id="A_tRMl9OzeEIElT0_HVN-6" value="&lt;div&gt;&lt;a href=&quot;https://www.youtube.com/watch?v=Geq60OVyBPg&quot;&gt;&lt;b&gt;Unit + Integration Test &lt;br&gt;&lt;/b&gt;&lt;/a&gt;&lt;/div&gt;&lt;div&gt;&lt;i&gt;Amigoscode&lt;/i&gt;&lt;br&gt;&lt;/div&gt;" style="whiteSpace=wrap;html=1;fillColor=#fff2cc;strokeColor=#d6b656;" vertex="1" parent="1">
          <mxGeometry x="335" y="-22" width="190" height="60" as="geometry" />
        </mxCell>
        <mxCell id="A_tRMl9OzeEIElT0_HVN-8" value="Topics" style="swimlane;fontStyle=0;childLayout=stackLayout;horizontal=1;startSize=30;horizontalStack=0;resizeParent=1;resizeParentMax=0;resizeLast=0;collapsible=1;marginBottom=0;whiteSpace=wrap;html=1;fillColor=#f5f5f5;fontColor=#333333;strokeColor=#666666;" vertex="1" parent="1">
          <mxGeometry x="85" y="238" width="210" height="211" as="geometry" />
        </mxCell>
        <UserObject label="Version 8 to 18" link="https://www.youtube.com/watch?v=P7SI9mLwiqw" linkTarget="_blank" id="A_tRMl9OzeEIElT0_HVN-9">
          <mxCell style="text;strokeColor=none;fillColor=none;align=left;verticalAlign=middle;spacingLeft=4;spacingRight=4;overflow=hidden;points=[[0,0.5],[1,0.5]];portConstraint=eastwest;rotatable=0;whiteSpace=wrap;html=1;" vertex="1" parent="A_tRMl9OzeEIElT0_HVN-8">
            <mxGeometry y="30" width="210" height="30" as="geometry" />
          </mxCell>
        </UserObject>
        <UserObject label="Wildcards &amp;lt;?&amp;gt;" link="https://www.geeksforgeeks.org/wildcards-in-java/" linkTarget="_blank" id="A_tRMl9OzeEIElT0_HVN-10">
          <mxCell style="text;strokeColor=none;fillColor=none;align=left;verticalAlign=middle;spacingLeft=4;spacingRight=4;overflow=hidden;points=[[0,0.5],[1,0.5]];portConstraint=eastwest;rotatable=0;whiteSpace=wrap;html=1;" vertex="1" parent="A_tRMl9OzeEIElT0_HVN-8">
            <mxGeometry y="60" width="210" height="30" as="geometry" />
          </mxCell>
        </UserObject>
        <UserObject label="Refactor Java 8 to 17 (LTS)" link="https://www.youtube.com/watch?v=wW7uzc61tZ8" linkTarget="_blank" id="A_tRMl9OzeEIElT0_HVN-11">
          <mxCell style="text;strokeColor=none;fillColor=none;align=left;verticalAlign=middle;spacingLeft=4;spacingRight=4;overflow=hidden;points=[[0,0.5],[1,0.5]];portConstraint=eastwest;rotatable=0;whiteSpace=wrap;html=1;" vertex="1" parent="A_tRMl9OzeEIElT0_HVN-8">
            <mxGeometry y="90" width="210" height="30" as="geometry" />
          </mxCell>
        </UserObject>
        <UserObject label="Custom @Annotation" link="https://www.baeldung.com/java-custom-annotation" linkTarget="_blank" id="A_tRMl9OzeEIElT0_HVN-13">
          <mxCell style="text;strokeColor=none;fillColor=none;align=left;verticalAlign=middle;spacingLeft=4;spacingRight=4;overflow=hidden;points=[[0,0.5],[1,0.5]];portConstraint=eastwest;rotatable=0;whiteSpace=wrap;html=1;" vertex="1" parent="A_tRMl9OzeEIElT0_HVN-8">
            <mxGeometry y="120" width="210" height="30" as="geometry" />
          </mxCell>
        </UserObject>
        <UserObject label="Stream API" link="https://www.baeldung.com/java-streams" linkTarget="_blank" id="A_tRMl9OzeEIElT0_HVN-14">
          <mxCell style="text;strokeColor=none;fillColor=none;align=left;verticalAlign=middle;spacingLeft=4;spacingRight=4;overflow=hidden;points=[[0,0.5],[1,0.5]];portConstraint=eastwest;rotatable=0;whiteSpace=wrap;html=1;" vertex="1" parent="A_tRMl9OzeEIElT0_HVN-8">
            <mxGeometry y="150" width="210" height="30" as="geometry" />
          </mxCell>
        </UserObject>
        <UserObject label="." linkTarget="_blank" id="A_tRMl9OzeEIElT0_HVN-15">
          <mxCell style="text;strokeColor=none;fillColor=none;align=left;verticalAlign=middle;spacingLeft=4;spacingRight=4;overflow=hidden;points=[[0,0.5],[1,0.5]];portConstraint=eastwest;rotatable=0;whiteSpace=wrap;html=1;" vertex="1" parent="A_tRMl9OzeEIElT0_HVN-8">
            <mxGeometry y="180" width="210" height="31" as="geometry" />
          </mxCell>
        </UserObject>
        <mxCell id="A_tRMl9OzeEIElT0_HVN-16" value="Topics" style="swimlane;fontStyle=0;childLayout=stackLayout;horizontal=1;startSize=30;horizontalStack=0;resizeParent=1;resizeParentMax=0;resizeLast=0;collapsible=1;marginBottom=0;whiteSpace=wrap;html=1;fillColor=#d5e8d4;strokeColor=#82b366;" vertex="1" parent="1">
          <mxGeometry x="332" y="238" width="196" height="210" as="geometry" />
        </mxCell>
        <UserObject label="JPA &amp;amp; Hibernate" link="https://www.baeldung.com/learn-jpa-hibernate" linkTarget="_blank" id="A_tRMl9OzeEIElT0_HVN-17">
          <mxCell style="text;strokeColor=none;fillColor=none;align=left;verticalAlign=middle;spacingLeft=4;spacingRight=4;overflow=hidden;points=[[0,0.5],[1,0.5]];portConstraint=eastwest;rotatable=0;whiteSpace=wrap;html=1;" vertex="1" parent="A_tRMl9OzeEIElT0_HVN-16">
            <mxGeometry y="30" width="196" height="30" as="geometry" />
          </mxCell>
        </UserObject>
        <UserObject label="Security" link="https://www.baeldung.com/security-spring" linkTarget="_blank" id="A_tRMl9OzeEIElT0_HVN-18">
          <mxCell style="text;strokeColor=none;fillColor=none;align=left;verticalAlign=middle;spacingLeft=4;spacingRight=4;overflow=hidden;points=[[0,0.5],[1,0.5]];portConstraint=eastwest;rotatable=0;whiteSpace=wrap;html=1;" vertex="1" parent="A_tRMl9OzeEIElT0_HVN-16">
            <mxGeometry y="60" width="196" height="30" as="geometry" />
          </mxCell>
        </UserObject>
        <UserObject label="Dockerize Web Apps" link="https://www.youtube.com/watch?v=IGg1Rx29_O0" linkTarget="_blank" id="A_tRMl9OzeEIElT0_HVN-19">
          <mxCell style="text;strokeColor=none;fillColor=none;align=left;verticalAlign=middle;spacingLeft=4;spacingRight=4;overflow=hidden;points=[[0,0.5],[1,0.5]];portConstraint=eastwest;rotatable=0;whiteSpace=wrap;html=1;" vertex="1" parent="A_tRMl9OzeEIElT0_HVN-16">
            <mxGeometry y="90" width="196" height="30" as="geometry" />
          </mxCell>
        </UserObject>
        <mxCell id="A_tRMl9OzeEIElT0_HVN-21" value="." style="text;strokeColor=none;fillColor=none;align=left;verticalAlign=middle;spacingLeft=4;spacingRight=4;overflow=hidden;points=[[0,0.5],[1,0.5]];portConstraint=eastwest;rotatable=0;whiteSpace=wrap;html=1;" vertex="1" parent="A_tRMl9OzeEIElT0_HVN-16">
          <mxGeometry y="120" width="196" height="30" as="geometry" />
        </mxCell>
        <mxCell id="A_tRMl9OzeEIElT0_HVN-22" value="." style="text;strokeColor=none;fillColor=none;align=left;verticalAlign=middle;spacingLeft=4;spacingRight=4;overflow=hidden;points=[[0,0.5],[1,0.5]];portConstraint=eastwest;rotatable=0;whiteSpace=wrap;html=1;" vertex="1" parent="A_tRMl9OzeEIElT0_HVN-16">
          <mxGeometry y="150" width="196" height="30" as="geometry" />
        </mxCell>
        <mxCell id="A_tRMl9OzeEIElT0_HVN-23" value="." style="text;strokeColor=none;fillColor=none;align=left;verticalAlign=middle;spacingLeft=4;spacingRight=4;overflow=hidden;points=[[0,0.5],[1,0.5]];portConstraint=eastwest;rotatable=0;whiteSpace=wrap;html=1;" vertex="1" parent="A_tRMl9OzeEIElT0_HVN-16">
          <mxGeometry y="180" width="196" height="30" as="geometry" />
        </mxCell>
        <mxCell id="A_tRMl9OzeEIElT0_HVN-27" value="" style="edgeStyle=none;curved=1;rounded=0;orthogonalLoop=1;jettySize=auto;html=1;fontSize=12;startSize=8;endSize=8;" edge="1" parent="1" source="A_tRMl9OzeEIElT0_HVN-24" target="A_tRMl9OzeEIElT0_HVN-26">
          <mxGeometry relative="1" as="geometry" />
        </mxCell>
        <mxCell id="A_tRMl9OzeEIElT0_HVN-24" value="JavaScript" style="whiteSpace=wrap;html=1;fillColor=#fff2cc;strokeColor=#d6b656;" vertex="1" parent="1">
          <mxGeometry x="-350" y="124" width="120" height="60" as="geometry" />
        </mxCell>
        <mxCell id="A_tRMl9OzeEIElT0_HVN-29" value="" style="edgeStyle=none;curved=1;rounded=0;orthogonalLoop=1;jettySize=auto;html=1;fontSize=12;startSize=8;endSize=8;" edge="1" parent="1" source="A_tRMl9OzeEIElT0_HVN-26" target="A_tRMl9OzeEIElT0_HVN-28">
          <mxGeometry relative="1" as="geometry" />
        </mxCell>
        <mxCell id="A_tRMl9OzeEIElT0_HVN-31" value="" style="edgeStyle=none;curved=1;rounded=0;orthogonalLoop=1;jettySize=auto;html=1;fontSize=12;startSize=8;endSize=8;" edge="1" parent="1" source="A_tRMl9OzeEIElT0_HVN-26" target="A_tRMl9OzeEIElT0_HVN-30">
          <mxGeometry relative="1" as="geometry" />
        </mxCell>
        <mxCell id="A_tRMl9OzeEIElT0_HVN-35" value="" style="edgeStyle=none;curved=1;rounded=0;orthogonalLoop=1;jettySize=auto;html=1;fontSize=12;startSize=8;endSize=8;" edge="1" parent="1" source="A_tRMl9OzeEIElT0_HVN-26" target="A_tRMl9OzeEIElT0_HVN-34">
          <mxGeometry relative="1" as="geometry" />
        </mxCell>
        <mxCell id="A_tRMl9OzeEIElT0_HVN-26" value="React" style="whiteSpace=wrap;html=1;fillColor=#b1ddf0;strokeColor=#10739e;" vertex="1" parent="1">
          <mxGeometry x="-561" y="122" width="120" height="60" as="geometry" />
        </mxCell>
        <mxCell id="A_tRMl9OzeEIElT0_HVN-28" value="Next.js" style="whiteSpace=wrap;html=1;fillColor=#333333;strokeColor=#314354;fontColor=#ffffff;fontStyle=1" vertex="1" parent="1">
          <mxGeometry x="-772" y="124" width="120" height="60" as="geometry" />
        </mxCell>
        <mxCell id="A_tRMl9OzeEIElT0_HVN-33" value="" style="edgeStyle=none;curved=1;rounded=0;orthogonalLoop=1;jettySize=auto;html=1;fontSize=12;startSize=8;endSize=8;" edge="1" parent="1" source="A_tRMl9OzeEIElT0_HVN-30" target="A_tRMl9OzeEIElT0_HVN-32">
          <mxGeometry relative="1" as="geometry" />
        </mxCell>
        <mxCell id="A_tRMl9OzeEIElT0_HVN-30" value="UI Build-ins" style="whiteSpace=wrap;html=1;fillColor=#b0e3e6;strokeColor=#0e8088;" vertex="1" parent="1">
          <mxGeometry x="-561" y="-22" width="120" height="60" as="geometry" />
        </mxCell>
        <mxCell id="A_tRMl9OzeEIElT0_HVN-32" value="Mantine UI" style="whiteSpace=wrap;html=1;fillColor=#b1ddf0;strokeColor=#10739e;" vertex="1" parent="1">
          <mxGeometry x="-772" y="-108" width="120" height="60" as="geometry" />
        </mxCell>
        <UserObject label="Electron" link="https://www.youtube.com/watch?v=oAaS9ix8pes" linkTarget="_blank" id="A_tRMl9OzeEIElT0_HVN-34">
          <mxCell style="whiteSpace=wrap;html=1;fillColor=#647687;strokeColor=#314354;fontColor=#ffffff;" vertex="1" parent="1">
            <mxGeometry x="-350" y="-22" width="120" height="60" as="geometry" />
          </mxCell>
        </UserObject>
        <mxCell id="A_tRMl9OzeEIElT0_HVN-36" value="Topics" style="swimlane;fontStyle=0;childLayout=stackLayout;horizontal=1;startSize=30;horizontalStack=0;resizeParent=1;resizeParentMax=0;resizeLast=0;collapsible=1;marginBottom=0;whiteSpace=wrap;html=1;fillColor=#b1ddf0;strokeColor=#10739e;" vertex="1" parent="1">
          <mxGeometry x="-600" y="238" width="198" height="240" as="geometry" />
        </mxCell>
        <UserObject label="Secure React App" link="https://www.freecodecamp.org/news/best-practices-for-security-of-your-react-js-application/" linkTarget="_blank" id="A_tRMl9OzeEIElT0_HVN-37">
          <mxCell style="text;align=left;verticalAlign=middle;spacingLeft=4;spacingRight=4;overflow=hidden;points=[[0,0.5],[1,0.5]];portConstraint=eastwest;rotatable=0;whiteSpace=wrap;html=1;" vertex="1" parent="A_tRMl9OzeEIElT0_HVN-36">
            <mxGeometry y="30" width="198" height="30" as="geometry" />
          </mxCell>
        </UserObject>
        <UserObject label="Testing UI" link="https://www.youtube.com/playlist?list=PLC3y8-rFHvwirqe1KHFCHJ0RqNuN61SJd" linkTarget="_blank" id="A_tRMl9OzeEIElT0_HVN-38">
          <mxCell style="text;strokeColor=none;fillColor=none;align=left;verticalAlign=middle;spacingLeft=4;spacingRight=4;overflow=hidden;points=[[0,0.5],[1,0.5]];portConstraint=eastwest;rotatable=0;whiteSpace=wrap;html=1;" vertex="1" parent="A_tRMl9OzeEIElT0_HVN-36">
            <mxGeometry y="60" width="198" height="30" as="geometry" />
          </mxCell>
        </UserObject>
        <mxCell id="A_tRMl9OzeEIElT0_HVN-39" value="Item 3" style="text;strokeColor=none;fillColor=none;align=left;verticalAlign=middle;spacingLeft=4;spacingRight=4;overflow=hidden;points=[[0,0.5],[1,0.5]];portConstraint=eastwest;rotatable=0;whiteSpace=wrap;html=1;" vertex="1" parent="A_tRMl9OzeEIElT0_HVN-36">
          <mxGeometry y="90" width="198" height="30" as="geometry" />
        </mxCell>
        <mxCell id="A_tRMl9OzeEIElT0_HVN-42" value="Item 3" style="text;strokeColor=none;fillColor=none;align=left;verticalAlign=middle;spacingLeft=4;spacingRight=4;overflow=hidden;points=[[0,0.5],[1,0.5]];portConstraint=eastwest;rotatable=0;whiteSpace=wrap;html=1;" vertex="1" parent="A_tRMl9OzeEIElT0_HVN-36">
          <mxGeometry y="120" width="198" height="30" as="geometry" />
        </mxCell>
        <mxCell id="A_tRMl9OzeEIElT0_HVN-43" value="Item 3" style="text;strokeColor=none;fillColor=none;align=left;verticalAlign=middle;spacingLeft=4;spacingRight=4;overflow=hidden;points=[[0,0.5],[1,0.5]];portConstraint=eastwest;rotatable=0;whiteSpace=wrap;html=1;" vertex="1" parent="A_tRMl9OzeEIElT0_HVN-36">
          <mxGeometry y="150" width="198" height="30" as="geometry" />
        </mxCell>
        <mxCell id="A_tRMl9OzeEIElT0_HVN-44" value="Item 3" style="text;strokeColor=none;fillColor=none;align=left;verticalAlign=middle;spacingLeft=4;spacingRight=4;overflow=hidden;points=[[0,0.5],[1,0.5]];portConstraint=eastwest;rotatable=0;whiteSpace=wrap;html=1;" vertex="1" parent="A_tRMl9OzeEIElT0_HVN-36">
          <mxGeometry y="180" width="198" height="30" as="geometry" />
        </mxCell>
        <mxCell id="A_tRMl9OzeEIElT0_HVN-45" value="Item 3" style="text;strokeColor=none;fillColor=none;align=left;verticalAlign=middle;spacingLeft=4;spacingRight=4;overflow=hidden;points=[[0,0.5],[1,0.5]];portConstraint=eastwest;rotatable=0;whiteSpace=wrap;html=1;" vertex="1" parent="A_tRMl9OzeEIElT0_HVN-36">
          <mxGeometry y="210" width="198" height="30" as="geometry" />
        </mxCell>
      </root>
    </mxGraphModel>
  </diagram>
</mxfile>
